<svg xmlns="http://www.w3.org/2000/svg" xmlns:xlink="http://www.w3.org/1999/xlink" width="500" zoomAndPan="magnify" viewBox="0 0 375 374.999991" height="500" preserveAspectRatio="xMidYMid meet" version="1.0"><defs><g/><clipPath id="55aa9c85f2"><path d="M 10.503906 10.503906 L 364.503906 10.503906 L 364.503906 364.503906 L 10.503906 364.503906 Z M 10.503906 10.503906 " clip-rule="nonzero"/></clipPath></defs><g fill="#051f20" fill-opacity="1"><g transform="translate(70.553157, 264.867359)"><g><path d="M 13.859375 -172.40625 L 13.578125 -11.921875 L 13.578125 -8.875 C 13.578125 -8.132812 13.394531 -7.300781 13.03125 -6.375 C 13.03125 -3.96875 12.472656 -2.765625 11.359375 -2.765625 L 11.09375 -2.765625 L 11.09375 0 L 44.625 0 L 44.625 -2.765625 L 44.078125 -2.765625 C 43.335938 -2.765625 42.734375 -3.273438 42.265625 -4.296875 C 41.804688 -5.316406 41.4375 -6.519531 41.15625 -7.90625 C 40.882812 -9.289062 40.75 -10.535156 40.75 -11.640625 L 40.75 -92.859375 L 87.859375 -92.859375 C 88.972656 -92.859375 89.988281 -92.671875 90.90625 -92.296875 C 95.15625 -91.929688 97.742188 -91.285156 98.671875 -90.359375 L 99.5 -90.078125 L 101.71875 -90.078125 L 101.71875 -102 L 99.5 -102 C 98.019531 -101.632812 96.820312 -101.265625 95.90625 -100.890625 L 95.078125 -100.890625 C 94.890625 -100.703125 94.519531 -100.609375 93.96875 -100.609375 L 92.578125 -100.609375 C 92.203125 -100.609375 91.738281 -100.519531 91.1875 -100.34375 C 89.894531 -100.34375 88.785156 -100.25 87.859375 -100.0625 L 85.921875 -100.0625 C 85.367188 -100.0625 84.628906 -99.96875 83.703125 -99.78125 L 81.484375 -99.78125 C 80.566406 -99.78125 79.550781 -99.6875 78.4375 -99.5 L 40.75 -99.5 L 40.75 -176 L 104.765625 -176 C 105.691406 -176 106.617188 -175.910156 107.546875 -175.734375 L 112.8125 -175.734375 C 114.84375 -175.734375 116.320312 -175.546875 117.25 -175.171875 C 119.46875 -175.171875 121.773438 -174.710938 124.171875 -173.796875 L 126.671875 -172.953125 C 127.410156 -172.953125 128.238281 -172.582031 129.15625 -171.84375 L 131.375 -171.84375 L 131.375 -182.9375 L 11.09375 -182.9375 L 11.09375 -180.171875 L 11.359375 -180.171875 C 12.648438 -180.171875 13.296875 -178.875 13.296875 -176.28125 C 13.671875 -175.539062 13.859375 -174.617188 13.859375 -173.515625 Z M 13.859375 -172.40625 "/></g></g></g><g fill="#051f20" fill-opacity="1"><g transform="translate(171.292, 264.867359)"><g><path d="M 50.453125 -17.46875 C 50.453125 -12.476562 49.476562 -8.78125 47.53125 -6.375 C 45.59375 -3.96875 42.222656 -2.765625 37.421875 -2.765625 C 33.171875 -2.765625 29.9375 -3.597656 27.71875 -5.265625 C 25.875 -7.109375 24.394531 -9.972656 23.28125 -13.859375 C 22.726562 -18.109375 21.34375 -20.972656 19.125 -22.453125 C 17.832031 -23.929688 14.96875 -24.671875 10.53125 -24.671875 C 7.945312 -24.671875 5.453125 -24.390625 3.046875 -23.828125 C 0.648438 -23.273438 -0.546875 -21.425781 -0.546875 -18.28125 C -0.546875 -15.144531 0.375 -11.914062 2.21875 -8.59375 C 4.070312 -5.269531 6.382812 -2.679688 9.15625 -0.828125 C 11.738281 0.273438 14.878906 1.148438 18.578125 1.796875 C 22.273438 2.441406 27.078125 2.765625 32.984375 2.765625 C 44.253906 2.765625 52.984375 1.472656 59.171875 -1.109375 C 65.367188 -3.691406 69.945312 -7.382812 72.90625 -12.1875 C 75.863281 -17 77.617188 -22.867188 78.171875 -29.796875 C 78.722656 -36.722656 79 -44.625 79 -53.5 L 79 -165.203125 C 79 -166.117188 79.09375 -167.039062 79.28125 -167.96875 L 79.28125 -176.5625 C 79.457031 -178.96875 80.007812 -180.171875 80.9375 -180.171875 L 81.21875 -180.171875 C 81.40625 -180.171875 81.5 -180.257812 81.5 -180.4375 C 81.863281 -180.8125 81.769531 -181.179688 81.21875 -181.546875 C 81.40625 -181.921875 81.5 -182.289062 81.5 -182.65625 C 81.5 -182.84375 81.40625 -182.9375 81.21875 -182.9375 L 49.34375 -182.9375 L 49.34375 -180.171875 L 49.625 -180.171875 C 50.726562 -180.171875 51.28125 -178.875 51.28125 -176.28125 C 51.65625 -175.539062 51.84375 -174.617188 51.84375 -173.515625 L 51.84375 -172.40625 L 51.5625 -39.078125 L 51.5625 -32.421875 C 51.5625 -30.578125 51.375 -28.640625 51 -26.609375 C 51 -24.941406 50.953125 -23.367188 50.859375 -21.890625 C 50.773438 -20.410156 50.640625 -18.9375 50.453125 -17.46875 Z M 50.453125 -17.46875 "/></g></g></g><g clip-path="url(#55aa9c85f2)"><path fill="#051f20" d="M 364.503906 187.503906 C 364.503906 285.257812 285.257812 364.503906 187.503906 364.503906 C 89.75 364.503906 10.503906 285.257812 10.503906 187.503906 C 10.503906 89.75 89.75 10.503906 187.503906 10.503906 C 285.257812 10.503906 364.503906 89.75 364.503906 187.503906 M 359.425781 187.503906 C 359.425781 92.554688 282.453125 15.582031 187.503906 15.582031 C 92.554688 15.582031 15.585938 92.554688 15.585938 187.503906 C 15.585938 282.449219 92.554688 359.421875 187.503906 359.421875 C 282.453125 359.421875 359.425781 282.449219 359.425781 187.503906 Z M 359.425781 187.503906 " fill-opacity="1" fill-rule="nonzero"/></g><g fill="#051f20" fill-opacity="1"><g transform="translate(113.309336, 297.669217)"><g><path d="M 16.15625 -21.15625 L 2.75 -0.390625 L 2.5 0 C 2.4375 0.09375 2.34375 0.175781 2.21875 0.25 C 2.019531 0.5625 1.847656 0.675781 1.703125 0.59375 L 1.671875 0.5625 L 1.4375 0.921875 L 5.78125 3.71875 L 6.015625 3.359375 L 5.9375 3.3125 C 5.84375 3.25 5.804688 3.132812 5.828125 2.96875 C 5.859375 2.800781 5.910156 2.613281 5.984375 2.40625 C 6.054688 2.207031 6.140625 2.03125 6.234375 1.875 L 6.46875 1.53125 L 13 -8.625 L 18.53125 -5.0625 L 19.109375 -4.6875 C 19.253906 -4.601562 19.367188 -4.492188 19.453125 -4.359375 C 19.960938 -3.960938 20.242188 -3.664062 20.296875 -3.46875 L 20.375 -3.375 L 20.65625 -3.1875 L 21.65625 -4.734375 L 21.375 -4.921875 C 21.144531 -4.984375 20.960938 -5.03125 20.828125 -5.0625 L 20.71875 -5.140625 C 20.664062 -5.117188 20.609375 -5.132812 20.546875 -5.1875 L 20.359375 -5.296875 C 20.316406 -5.328125 20.25 -5.359375 20.15625 -5.390625 C 19.988281 -5.492188 19.84375 -5.570312 19.71875 -5.625 L 19.453125 -5.796875 C 19.390625 -5.835938 19.289062 -5.882812 19.15625 -5.9375 L 18.859375 -6.125 C 18.734375 -6.207031 18.59375 -6.28125 18.4375 -6.34375 L 13.546875 -9.484375 L 19.9375 -19.390625 L 27.765625 -14.34375 L 28.234375 -14.046875 C 28.347656 -13.972656 28.453125 -13.882812 28.546875 -13.78125 L 29.234375 -13.34375 C 29.492188 -13.164062 29.671875 -13.019531 29.765625 -12.90625 C 30.054688 -12.71875 30.316406 -12.460938 30.546875 -12.140625 L 30.796875 -11.828125 C 30.898438 -11.765625 30.976562 -11.644531 31.03125 -11.46875 L 31.3125 -11.296875 L 32.234375 -12.734375 L 16.671875 -22.75 L 16.453125 -22.390625 L 16.484375 -22.359375 C 16.648438 -22.253906 16.625 -22.035156 16.40625 -21.703125 C 16.394531 -21.578125 16.34375 -21.441406 16.25 -21.296875 Z M 16.15625 -21.15625 "/></g></g></g><g fill="#051f20" fill-opacity="1"><g transform="translate(136.299279, 311.259512)"><g><path d="M 2.640625 -0.84375 L 2.484375 -0.46875 C 2.421875 -0.332031 2.332031 -0.210938 2.21875 -0.109375 C 2.070312 0.234375 1.925781 0.367188 1.78125 0.296875 L 1.734375 0.28125 L 1.5625 0.671875 L 6.109375 2.640625 L 6.28125 2.25 L 6.1875 2.21875 C 6.113281 2.1875 6.117188 1.960938 6.203125 1.546875 L 6.328125 1.28125 C 6.347656 1.144531 6.445312 0.867188 6.625 0.453125 L 15.65625 -20.421875 L 15.84375 -20.84375 C 15.90625 -20.976562 15.976562 -21.109375 16.0625 -21.234375 L 16.265625 -21.6875 C 16.378906 -21.863281 16.460938 -22.015625 16.515625 -22.140625 L 16.640625 -22.40625 C 16.859375 -22.71875 16.988281 -22.863281 17.03125 -22.84375 L 17.125 -22.8125 L 17.296875 -23.203125 L 12.75 -25.171875 L 12.578125 -24.78125 L 12.625 -24.765625 C 12.800781 -24.679688 12.8125 -24.457031 12.65625 -24.09375 C 12.664062 -23.96875 12.640625 -23.820312 12.578125 -23.65625 L 12.5 -23.5 Z M 2.640625 -0.84375 "/></g></g></g><g fill="#051f20" fill-opacity="1"><g transform="translate(150.236413, 317.401821)"><g><path d="M 9.828125 -25.546875 C 9.804688 -25.460938 9.773438 -25.394531 9.734375 -25.34375 C 9.710938 -25.289062 9.644531 -25.1875 9.53125 -25.03125 L 9.890625 -24.953125 C 10.015625 -24.984375 10.171875 -25.007812 10.359375 -25.03125 C 10.472656 -25.050781 10.554688 -25.054688 10.609375 -25.046875 L 10.671875 -25.0625 L 10.796875 -25.046875 C 10.984375 -25.097656 11.144531 -25.109375 11.28125 -25.078125 C 11.394531 -25.066406 11.5625 -25.035156 11.78125 -24.984375 C 11.9375 -25.023438 12.15625 -25.007812 12.4375 -24.9375 L 13.09375 -24.796875 C 13.1875 -24.804688 13.328125 -24.785156 13.515625 -24.734375 C 13.710938 -24.691406 13.851562 -24.644531 13.9375 -24.59375 L 22.828125 -22.546875 L 1.65625 0.375 L 21 4.828125 C 21.007812 4.773438 21.035156 4.738281 21.078125 4.71875 L 21.078125 4.671875 L 21.109375 4.59375 C 21.148438 4.507812 21.179688 4.414062 21.203125 4.3125 C 21.347656 4.082031 21.441406 3.882812 21.484375 3.71875 C 21.515625 3.632812 21.546875 3.535156 21.578125 3.421875 C 21.585938 3.378906 21.613281 3.332031 21.65625 3.28125 L 21.6875 3.140625 L 21.625 3.125 C 21.5625 3.09375 21.429688 3.054688 21.234375 3.015625 L 21.15625 3 C 20.894531 3.132812 20.550781 3.203125 20.125 3.203125 C 19.695312 3.210938 19.328125 3.207031 19.015625 3.1875 L 18.484375 3.0625 C 18.316406 3.019531 18.117188 2.992188 17.890625 2.984375 L 7.140625 0.515625 L 28.296875 -22.375 L 10.34375 -26.515625 C 10.320312 -26.429688 10.269531 -26.359375 10.1875 -26.296875 C 10.164062 -26.179688 10.128906 -26.097656 10.078125 -26.046875 C 10.046875 -25.929688 9.960938 -25.765625 9.828125 -25.546875 Z M 9.828125 -25.546875 "/></g></g></g><g fill="#051f20" fill-opacity="1"><g transform="translate(181.88526, 323.657993)"><g><path d="M 3.109375 -27.1875 C 3.109375 -27.101562 3.097656 -27.03125 3.078125 -26.96875 C 3.078125 -26.914062 3.035156 -26.796875 2.953125 -26.609375 L 3.328125 -26.625 C 3.441406 -26.6875 3.585938 -26.75 3.765625 -26.8125 C 3.878906 -26.875 3.960938 -26.90625 4.015625 -26.90625 L 4.0625 -26.9375 L 4.1875 -26.9375 C 4.34375 -27.039062 4.492188 -27.09375 4.640625 -27.09375 C 4.753906 -27.125 4.925781 -27.140625 5.15625 -27.140625 C 5.289062 -27.210938 5.503906 -27.25 5.796875 -27.25 L 6.46875 -27.265625 C 6.5625 -27.304688 6.707031 -27.328125 6.90625 -27.328125 C 7.101562 -27.335938 7.242188 -27.328125 7.328125 -27.296875 L 16.453125 -27.546875 L 1.703125 -0.046875 L 21.53125 -0.578125 C 21.53125 -0.628906 21.546875 -0.671875 21.578125 -0.703125 L 21.578125 -0.828125 C 21.585938 -0.921875 21.59375 -1.019531 21.59375 -1.125 C 21.675781 -1.394531 21.71875 -1.613281 21.71875 -1.78125 C 21.738281 -1.875 21.742188 -1.976562 21.734375 -2.09375 C 21.734375 -2.144531 21.75 -2.195312 21.78125 -2.25 L 21.78125 -2.390625 L 21.703125 -2.390625 C 21.640625 -2.398438 21.507812 -2.40625 21.3125 -2.40625 L 21.25 -2.40625 C 21.019531 -2.195312 20.695312 -2.035156 20.28125 -1.921875 C 19.875 -1.816406 19.515625 -1.734375 19.203125 -1.671875 L 18.65625 -1.65625 C 18.488281 -1.65625 18.289062 -1.632812 18.0625 -1.59375 L 7.046875 -1.296875 L 21.78125 -28.75 L 3.375 -28.25 C 3.382812 -28.164062 3.359375 -28.082031 3.296875 -28 C 3.296875 -27.882812 3.269531 -27.796875 3.21875 -27.734375 C 3.226562 -27.617188 3.191406 -27.4375 3.109375 -27.1875 Z M 3.109375 -27.1875 "/></g></g></g><g fill="#051f20" fill-opacity="1"><g transform="translate(214.101826, 321.795088)"><g><path d="M 0.640625 -2.234375 C 0.617188 -2.191406 0.613281 -2.15625 0.625 -2.125 C 0.632812 -2.09375 0.628906 -2.0625 0.609375 -2.03125 C 0.597656 -1.976562 0.585938 -1.90625 0.578125 -1.8125 C 0.578125 -1.71875 0.578125 -1.640625 0.578125 -1.578125 L 0.515625 -1.296875 C 0.484375 -1.179688 0.476562 -1.097656 0.5 -1.046875 C 0.476562 -0.734375 0.398438 -0.554688 0.265625 -0.515625 L 0.171875 -0.484375 L 0.28125 -0.078125 L 2.34375 -0.671875 L 2.234375 -1.078125 L 2.1875 -1.0625 C 2.125 -1.050781 2.054688 -1.171875 1.984375 -1.421875 C 2.035156 -1.578125 2.035156 -1.78125 1.984375 -2.03125 L 1.96875 -2.5625 C 1.957031 -2.59375 1.960938 -2.625 1.984375 -2.65625 L 1.96875 -2.84375 L 1.953125 -2.921875 L 2.40625 -11.078125 L 11.828125 -13.796875 L 16.234375 -8.015625 C 16.453125 -7.804688 16.628906 -7.601562 16.765625 -7.40625 C 16.910156 -7.21875 17.046875 -7.03125 17.171875 -6.84375 C 17.410156 -6.59375 17.582031 -6.351562 17.6875 -6.125 L 17.734375 -6.09375 C 17.742188 -6.0625 17.769531 -6.023438 17.8125 -5.984375 L 17.8125 -5.9375 C 17.90625 -5.84375 17.960938 -5.765625 17.984375 -5.703125 C 18.003906 -5.648438 17.984375 -5.617188 17.921875 -5.609375 L 17.890625 -5.59375 L 18 -5.1875 L 23.046875 -6.640625 L 22.9375 -7.046875 L 22.84375 -7.03125 C 22.707031 -6.988281 22.507812 -7.09375 22.25 -7.34375 L 22.234375 -7.390625 L 22.1875 -7.421875 L 22.140625 -7.53125 L 22.03125 -7.6875 C 21.988281 -7.707031 21.929688 -7.75 21.859375 -7.8125 L 21.71875 -7.953125 C 21.6875 -7.941406 21.65625 -7.960938 21.625 -8.015625 L 21.609375 -8.0625 C 21.554688 -8.15625 21.515625 -8.195312 21.484375 -8.1875 C 21.398438 -8.289062 21.332031 -8.375 21.28125 -8.4375 C 21.195312 -8.53125 21.125 -8.617188 21.0625 -8.703125 L 3.40625 -30.953125 L 2.390625 -30.65625 L 0.671875 -2.5 C 0.640625 -2.375 0.628906 -2.285156 0.640625 -2.234375 Z M 3.109375 -25.09375 L 11.125 -14.703125 L 2.4375 -12.1875 Z M 3.109375 -25.09375 "/></g></g></g><g fill="#051f20" fill-opacity="1"><g transform="translate(243.962808, 311.788259)"><g/></g></g><g fill="#051f20" fill-opacity="1"><g transform="translate(258.971138, 303.706642)"><g><path d="M 4.75 -6.703125 C 5.195312 -6.078125 5.40625 -5.523438 5.375 -5.046875 C 5.351562 -4.578125 5.039062 -4.128906 4.4375 -3.703125 C 3.90625 -3.316406 3.425781 -3.128906 3 -3.140625 C 2.601562 -3.203125 2.160156 -3.429688 1.671875 -3.828125 C 1.222656 -4.304688 0.796875 -4.539062 0.390625 -4.53125 C 0.0976562 -4.601562 -0.320312 -4.441406 -0.875 -4.046875 C -1.195312 -3.804688 -1.484375 -3.546875 -1.734375 -3.265625 C -1.992188 -2.984375 -1.984375 -2.644531 -1.703125 -2.25 C -1.421875 -1.851562 -1.015625 -1.523438 -0.484375 -1.265625 C 0.046875 -1.015625 0.5625 -0.898438 1.0625 -0.921875 C 1.5 -1.015625 1.972656 -1.1875 2.484375 -1.4375 C 3.003906 -1.695312 3.632812 -2.085938 4.375 -2.609375 C 5.789062 -3.617188 6.769531 -4.5625 7.3125 -5.4375 C 7.851562 -6.320312 8.09375 -7.195312 8.03125 -8.0625 C 7.96875 -8.925781 7.65625 -9.816406 7.09375 -10.734375 C 6.539062 -11.648438 5.867188 -12.660156 5.078125 -13.765625 L -4.65625 -27.359375 L -4.921875 -27.75 C -5.015625 -27.863281 -5.085938 -27.988281 -5.140625 -28.125 L -5.90625 -29.203125 C -6.101562 -29.523438 -6.140625 -29.726562 -6.015625 -29.8125 L -6 -29.828125 C -5.96875 -29.847656 -5.957031 -29.867188 -5.96875 -29.890625 C -5.957031 -29.960938 -6.003906 -30 -6.109375 -30 C -6.117188 -30.0625 -6.140625 -30.117188 -6.171875 -30.171875 C -6.179688 -30.191406 -6.203125 -30.191406 -6.234375 -30.171875 L -10.21875 -27.3125 L -9.984375 -26.96875 L -9.9375 -27 C -9.800781 -27.09375 -9.613281 -26.976562 -9.375 -26.65625 C -9.269531 -26.601562 -9.164062 -26.503906 -9.0625 -26.359375 L -8.96875 -26.21875 L 2.953125 -9.515625 L 3.546875 -8.671875 C 3.710938 -8.441406 3.863281 -8.1875 4 -7.90625 C 4.144531 -7.695312 4.273438 -7.492188 4.390625 -7.296875 C 4.515625 -7.109375 4.632812 -6.910156 4.75 -6.703125 Z M 4.75 -6.703125 "/></g></g></g><g fill="#051f20" fill-opacity="1"><g transform="translate(276.268991, 291.050099)"><g><path d="M -0.625 -2.234375 C -0.625 -2.191406 -0.609375 -2.160156 -0.578125 -2.140625 C -0.554688 -2.117188 -0.546875 -2.097656 -0.546875 -2.078125 C -0.515625 -2.003906 -0.476562 -1.929688 -0.4375 -1.859375 C -0.394531 -1.785156 -0.359375 -1.710938 -0.328125 -1.640625 L -0.234375 -1.390625 C -0.191406 -1.253906 -0.15625 -1.171875 -0.125 -1.140625 C 0.0195312 -0.859375 0.046875 -0.664062 -0.046875 -0.5625 L -0.109375 -0.5 L 0.203125 -0.21875 L 1.640625 -1.796875 L 1.328125 -2.078125 L 1.296875 -2.046875 C 1.253906 -1.992188 1.140625 -2.054688 0.953125 -2.234375 C 0.898438 -2.410156 0.796875 -2.59375 0.640625 -2.78125 L 0.34375 -3.21875 C 0.320312 -3.238281 0.3125 -3.265625 0.3125 -3.296875 L 0.203125 -3.453125 L 0.140625 -3.515625 L -3.75 -10.703125 L 2.875 -17.9375 L 9.671875 -15.3125 C 9.953125 -15.238281 10.203125 -15.15625 10.421875 -15.0625 C 10.648438 -14.976562 10.863281 -14.894531 11.0625 -14.8125 C 11.40625 -14.71875 11.679688 -14.601562 11.890625 -14.46875 L 11.953125 -14.453125 C 11.972656 -14.429688 12.007812 -14.410156 12.0625 -14.390625 L 12.09375 -14.359375 C 12.21875 -14.335938 12.300781 -14.304688 12.34375 -14.265625 C 12.382812 -14.222656 12.382812 -14.175781 12.34375 -14.125 L 12.328125 -14.109375 L 12.640625 -13.828125 L 16.1875 -17.703125 L 15.875 -17.984375 L 15.8125 -17.90625 C 15.707031 -17.800781 15.484375 -17.789062 15.140625 -17.875 L 15.109375 -17.90625 L 15.046875 -17.921875 L 14.953125 -18 L 14.765625 -18.046875 C 14.722656 -18.046875 14.65625 -18.0625 14.5625 -18.09375 L 14.375 -18.125 C 14.351562 -18.101562 14.316406 -18.101562 14.265625 -18.125 L 14.21875 -18.15625 C 14.113281 -18.207031 14.050781 -18.222656 14.03125 -18.203125 C 13.914062 -18.234375 13.816406 -18.269531 13.734375 -18.3125 C 13.609375 -18.34375 13.503906 -18.378906 13.421875 -18.421875 L -13.25 -28.1875 L -13.96875 -27.40625 L -0.75 -2.484375 C -0.707031 -2.347656 -0.664062 -2.265625 -0.625 -2.234375 Z M -10.453125 -23.015625 L 1.8125 -18.34375 L -4.296875 -11.671875 Z M -10.453125 -23.015625 "/></g></g></g><g fill="#051f20" fill-opacity="1"><g transform="translate(297.343033, 266.482884)"><g><path d="M 0.0625 -2.234375 C 0.394531 -2.054688 0.53125 -1.910156 0.46875 -1.796875 L 0.421875 -1.703125 L 0.796875 -1.5 L 5.875 -11.03125 C 6.625 -12.4375 7.238281 -13.742188 7.71875 -14.953125 C 8.195312 -16.160156 8.429688 -17.300781 8.421875 -18.375 C 8.410156 -19.445312 8.09375 -20.4375 7.46875 -21.34375 C 6.84375 -22.257812 5.789062 -23.113281 4.3125 -23.90625 C 3.875 -24.132812 3.410156 -24.351562 2.921875 -24.5625 C 2.441406 -24.78125 1.945312 -24.945312 1.4375 -25.0625 C 0.925781 -25.1875 0.429688 -25.265625 -0.046875 -25.296875 C -0.523438 -25.328125 -0.960938 -25.269531 -1.359375 -25.125 C -1.835938 -25.03125 -2.300781 -24.835938 -2.75 -24.546875 C -3.195312 -24.253906 -3.617188 -23.910156 -4.015625 -23.515625 C -4.410156 -23.128906 -4.773438 -22.71875 -5.109375 -22.28125 C -5.441406 -21.851562 -5.722656 -21.441406 -5.953125 -21.046875 C -5.703125 -22.003906 -5.5625 -22.835938 -5.53125 -23.546875 C -5.507812 -24.265625 -5.632812 -24.914062 -5.90625 -25.5 C -6.1875 -26.082031 -6.609375 -26.609375 -7.171875 -27.078125 C -7.734375 -27.554688 -8.453125 -28.03125 -9.328125 -28.5 C -10.554688 -29.15625 -11.5625 -29.515625 -12.34375 -29.578125 C -13.21875 -29.742188 -14.046875 -29.613281 -14.828125 -29.1875 C -15.546875 -28.863281 -16.3125 -28.175781 -17.125 -27.125 C -17.550781 -26.675781 -17.9375 -26.128906 -18.28125 -25.484375 C -18.476562 -25.171875 -18.675781 -24.832031 -18.875 -24.46875 L -19.484375 -23.3125 L -24.0625 -14.71875 L -23.6875 -14.53125 L -23.640625 -14.625 C -23.554688 -14.769531 -23.34375 -14.75 -23 -14.5625 C -22.832031 -14.5625 -22.585938 -14.441406 -22.265625 -14.203125 L -0.625 -2.703125 L -0.21875 -2.484375 C -0.113281 -2.429688 -0.0195312 -2.347656 0.0625 -2.234375 Z M -8.09375 -15.671875 L -7.5 -16.765625 C -7.320312 -17.109375 -7.097656 -17.476562 -6.828125 -17.875 C -6.691406 -18.0625 -6.546875 -18.273438 -6.390625 -18.515625 C -6.234375 -18.765625 -6.050781 -18.992188 -5.84375 -19.203125 C -5.226562 -19.972656 -4.539062 -20.570312 -3.78125 -21 C -3.019531 -21.4375 -2.132812 -21.546875 -1.125 -21.328125 C -0.707031 -21.265625 -0.253906 -21.144531 0.234375 -20.96875 C 0.722656 -20.800781 1.21875 -20.582031 1.71875 -20.3125 L 2.3125 -20 C 2.382812 -19.914062 2.457031 -19.859375 2.53125 -19.828125 L 2.796875 -19.6875 C 2.921875 -19.570312 3.046875 -19.484375 3.171875 -19.421875 L 3.625 -19.171875 L 3.78125 -19.09375 L 3.84375 -19.03125 C 3.957031 -18.9375 4.078125 -18.835938 4.203125 -18.734375 C 4.335938 -18.628906 4.488281 -18.503906 4.65625 -18.359375 C 5.226562 -17.816406 5.617188 -17.25 5.828125 -16.65625 C 6.046875 -16.0625 6.125 -15.460938 6.0625 -14.859375 C 6 -14.253906 5.84375 -13.632812 5.59375 -13 C 5.34375 -12.375 5.054688 -11.757812 4.734375 -11.15625 L 2 -6.03125 L -9.859375 -12.34375 Z M -18.546875 -22.8125 C -18.023438 -23.789062 -17.515625 -24.523438 -17.015625 -25.015625 C -16.515625 -25.515625 -15.984375 -25.820312 -15.421875 -25.9375 C -14.859375 -26.050781 -14.234375 -26 -13.546875 -25.78125 C -12.867188 -25.570312 -12.09375 -25.238281 -11.21875 -24.78125 C -10.164062 -24.21875 -9.347656 -23.65625 -8.765625 -23.09375 C -8.179688 -22.53125 -7.796875 -21.921875 -7.609375 -21.265625 C -7.421875 -20.617188 -7.421875 -19.898438 -7.609375 -19.109375 C -7.804688 -18.316406 -8.171875 -17.421875 -8.703125 -16.421875 L -10.65625 -12.765625 L -20.984375 -18.25 Z M -18.546875 -22.8125 "/></g></g></g><g fill="#051f20" fill-opacity="1"><g transform="translate(311.205282, 238.119125)"><g><path d="M -0.453125 -2.1875 C -0.0859375 -2.09375 0.0703125 -1.960938 0.03125 -1.796875 L 0.015625 -1.765625 L 0.421875 -1.65625 L 4.765625 -18.421875 C 4.710938 -18.429688 4.675781 -18.457031 4.65625 -18.5 L 4.609375 -18.515625 C 4.578125 -18.578125 4.554688 -18.582031 4.546875 -18.53125 C 4.484375 -18.570312 4.394531 -18.601562 4.28125 -18.625 C 4.0625 -18.769531 3.878906 -18.863281 3.734375 -18.90625 C 3.691406 -18.945312 3.601562 -18.988281 3.46875 -19.03125 C 3.382812 -19.050781 3.332031 -19.078125 3.3125 -19.109375 L 3.1875 -19.140625 L 3.09375 -18.796875 C 3.164062 -18.378906 3.1875 -17.953125 3.15625 -17.515625 C 3.132812 -17.078125 3.097656 -16.644531 3.046875 -16.21875 L 2.890625 -15.609375 C 2.828125 -15.378906 2.773438 -15.109375 2.734375 -14.796875 L 0.53125 -6.328125 L -12.46875 -9.6875 L -10.703125 -16.46875 L -10.53125 -17.140625 C -10.488281 -17.296875 -10.429688 -17.441406 -10.359375 -17.578125 C -10.128906 -18.203125 -9.929688 -18.554688 -9.765625 -18.640625 L -9.6875 -18.78125 L -9.59375 -19.09375 L -11.375 -19.546875 L -11.46875 -19.234375 C -11.46875 -19.003906 -11.460938 -18.804688 -11.453125 -18.640625 L -11.484375 -18.515625 C -11.453125 -18.484375 -11.445312 -18.429688 -11.46875 -18.359375 L -11.53125 -18.140625 C -11.539062 -18.085938 -11.539062 -18.019531 -11.53125 -17.9375 C -11.582031 -17.738281 -11.609375 -17.566406 -11.609375 -17.421875 L -11.6875 -17.125 C -11.707031 -17.039062 -11.726562 -16.929688 -11.75 -16.796875 L -11.828125 -16.46875 C -11.867188 -16.320312 -11.894531 -16.164062 -11.90625 -16 L -13.46875 -9.953125 L -24.671875 -12.84375 L -22.65625 -20.625 L -22.515625 -21.15625 C -22.484375 -21.289062 -22.429688 -21.425781 -22.359375 -21.5625 L -22.15625 -22.328125 C -22.082031 -22.628906 -22 -22.847656 -21.90625 -22.984375 C -21.820312 -23.316406 -21.660156 -23.644531 -21.421875 -23.96875 L -21.21875 -24.3125 C -21.1875 -24.425781 -21.097656 -24.53125 -20.953125 -24.625 L -20.875 -24.953125 L -22.53125 -25.375 L -26.84375 -8.703125 L -26.421875 -8.59375 L -26.40625 -8.625 C -26.351562 -8.820312 -26.140625 -8.875 -25.765625 -8.78125 C -25.640625 -8.8125 -25.492188 -8.804688 -25.328125 -8.765625 L -25.15625 -8.71875 L -1.234375 -2.484375 L -0.78125 -2.375 C -0.675781 -2.34375 -0.566406 -2.28125 -0.453125 -2.1875 Z M -0.453125 -2.1875 "/></g></g></g><g fill="#051f20" fill-opacity="1"><g transform="translate(317.49173, 210.503671)"><g><path d="M -0.921875 -2.03125 C -0.546875 -2.019531 -0.363281 -1.929688 -0.375 -1.765625 L -0.375 -1.71875 L 0.046875 -1.703125 L 0.578125 -19.015625 C 0.523438 -19.015625 0.484375 -19.03125 0.453125 -19.0625 L 0.40625 -19.0625 C 0.363281 -19.113281 0.335938 -19.113281 0.328125 -19.0625 C 0.273438 -19.09375 0.191406 -19.109375 0.078125 -19.109375 C -0.171875 -19.203125 -0.367188 -19.25 -0.515625 -19.25 C -0.566406 -19.28125 -0.664062 -19.300781 -0.8125 -19.3125 C -0.894531 -19.3125 -0.953125 -19.328125 -0.984375 -19.359375 L -1.109375 -19.359375 L -1.125 -19.015625 C -0.96875 -18.617188 -0.847656 -18.203125 -0.765625 -17.765625 C -0.691406 -17.335938 -0.640625 -16.914062 -0.609375 -16.5 L -0.625 -15.859375 C -0.632812 -15.628906 -0.628906 -15.359375 -0.609375 -15.046875 L -0.875 -6.296875 L -14.3125 -6.703125 L -14.09375 -13.703125 L -14.078125 -14.390625 C -14.066406 -14.554688 -14.035156 -14.710938 -13.984375 -14.859375 C -13.898438 -15.515625 -13.785156 -15.910156 -13.640625 -16.046875 L -13.59375 -16.1875 L -13.578125 -16.515625 L -15.40625 -16.5625 L -15.421875 -16.234375 C -15.378906 -16.003906 -15.332031 -15.816406 -15.28125 -15.671875 L -15.28125 -15.546875 C -15.257812 -15.515625 -15.25 -15.457031 -15.25 -15.375 L -15.25 -15.15625 C -15.25 -15.101562 -15.238281 -15.035156 -15.21875 -14.953125 C -15.21875 -14.753906 -15.207031 -14.582031 -15.1875 -14.4375 L -15.1875 -14.140625 C -15.1875 -14.054688 -15.179688 -13.941406 -15.171875 -13.796875 L -15.1875 -13.453125 C -15.1875 -13.304688 -15.171875 -13.148438 -15.140625 -12.984375 L -15.34375 -6.75 L -26.890625 -7.09375 L -26.640625 -15.125 L -26.625 -15.671875 C -26.613281 -15.816406 -26.59375 -15.960938 -26.5625 -16.109375 L -26.53125 -16.90625 C -26.53125 -17.207031 -26.5 -17.429688 -26.4375 -17.578125 C -26.425781 -17.921875 -26.34375 -18.273438 -26.1875 -18.640625 L -26.046875 -19.015625 C -26.046875 -19.128906 -25.984375 -19.253906 -25.859375 -19.390625 L -25.859375 -19.734375 L -27.5625 -19.78125 L -28.09375 -2.5625 L -27.671875 -2.546875 L -27.671875 -2.59375 C -27.660156 -2.789062 -27.457031 -2.882812 -27.0625 -2.875 C -26.945312 -2.9375 -26.800781 -2.960938 -26.625 -2.953125 L -26.453125 -2.953125 L -1.765625 -2.15625 L -1.296875 -2.140625 C -1.179688 -2.128906 -1.054688 -2.09375 -0.921875 -2.03125 Z M -0.921875 -2.03125 "/></g></g></g><g fill="#051f20" fill-opacity="1"><g transform="translate(317.667068, 181.944572)"><g><path d="M -1.15625 -3.5 L -1.15625 -3.453125 C -1.132812 -3.367188 -1.316406 -3.242188 -1.703125 -3.078125 L -1.984375 -3.03125 C -2.117188 -2.96875 -2.410156 -2.890625 -2.859375 -2.796875 L -24.625 1.78125 L -3.546875 -21.09375 L -3.828125 -22.421875 L -29.09375 -17.125 L -29.546875 -17.03125 C -29.691406 -17 -29.84375 -16.984375 -30 -16.984375 L -30.484375 -16.875 C -30.691406 -16.863281 -30.859375 -16.84375 -30.984375 -16.8125 L -31.28125 -16.765625 C -31.664062 -16.765625 -31.867188 -16.800781 -31.890625 -16.875 L -31.890625 -16.921875 L -32.3125 -16.84375 L -31.90625 -14.890625 L -31.484375 -14.96875 L -31.484375 -15 C -31.523438 -15.195312 -31.351562 -15.335938 -30.96875 -15.421875 C -30.863281 -15.503906 -30.722656 -15.566406 -30.546875 -15.609375 L -30.390625 -15.640625 L -10.359375 -19.796875 L -28.75 0.109375 L -27.90625 4.109375 L -27.484375 4.03125 L -27.5 3.984375 C -27.53125 3.828125 -27.351562 3.707031 -26.96875 3.625 C -26.875 3.539062 -26.738281 3.476562 -26.5625 3.4375 L -26.40625 3.40625 L -2.21875 -1.625 L -1.75 -1.71875 C -1.632812 -1.738281 -1.507812 -1.738281 -1.375 -1.71875 C -1 -1.789062 -0.796875 -1.757812 -0.765625 -1.625 L -0.75 -1.578125 L -0.34375 -1.671875 L -0.75 -3.59375 Z M -1.15625 -3.5 "/></g></g></g></svg>